<?xml version="1.0" standalone="no"?>
<!DOCTYPE svg PUBLIC "-//W3C//DTD SVG 20010904//EN"
 "http://www.w3.org/TR/2001/REC-SVG-20010904/DTD/svg10.dtd">
<svg version="1.0" xmlns="http://www.w3.org/2000/svg"
 width="512.000000pt" height="512.000000pt" viewBox="0 0 512.000000 512.000000"
 preserveAspectRatio="xMidYMid meet">
<metadata>
Created by potrace 1.14, written by Peter Selinger 2001-2017
</metadata>
<g transform="translate(0.000000,512.000000) scale(0.100000,-0.100000)"
fill="#000000" stroke="none">
<path d="M1699 4208 c-23 -40 -53 -92 -66 -115 -14 -24 -28 -43 -33 -43 -4 0
-30 39 -58 88 l-51 87 -360 0 c-198 0 -362 -3 -364 -5 -6 -6 -282 -484 -326
-563 l-32 -58 139 -242 139 -242 -343 -3 -344 -2 0 -550 0 -550 28 0 c28 0 30
-2 57 -107 78 -304 238 -633 432 -888 276 -361 631 -638 1054 -818 101 -43
131 -54 279 -98 82 -25 220 -56 285 -64 28 -4 52 -8 55 -10 30 -18 508 -27
642 -13 233 26 486 90 690 173 108 45 296 139 347 174 15 10 33 20 41 23 25 9
240 167 310 227 359 309 625 703 768 1139 22 64 47 150 57 190 16 69 18 72 46
72 l29 0 0 550 0 550 -1330 0 -1329 0 28 48 28 47 -28 45 c-16 25 -29 52 -29
61 0 8 52 105 115 214 63 110 115 202 115 207 0 4 -23 47 -52 95 -28 48 -57
97 -62 108 -6 11 -53 93 -105 183 l-94 162 -318 0 -318 0 -42 -72z"/>
</g>
</svg>
