<?xml version="1.0" encoding="UTF-8"?>
<svg height="50px" xmlns="http://www.w3.org/2000/svg" viewBox="0 0 676.7 242.82">
  <g id="a" data-name="Layer 1">
    <g>
      <path
        d="M142.39,130.46l-9.94-27.33c-4.56,8.34-9.96,15.55-14.64,21.07l1,2.74,11.81,32.48H56.63l2.62-7.18c-6.26-1.74-12.5-4.91-18.48-9.35L5.23,239.93H27.38l23.32-64.3h85.86l23.31,64.3h22.3l-39.78-109.47Z"
        style="fill: #696969;" />
      <path
        d="M275,93.32c-1.2-.24-2.46-.44-3.76-.58-1.3-.15-2.56-.27-3.77-.36-1.2-.1-2.15-.15-2.82-.15-8.21,0-15.37,2.13-21.5,6.37-.74,.51-1.46,1.05-2.17,1.61,3.83,3.28,6.6,9.23,8,16.44,4.41-2.09,9.44-3.13,15.09-3.13,1.35,0,3.43,.21,6.23,.65,2.8,.43,5.31,1.04,7.53,1.81v-21.87c-.68-.29-1.62-.55-2.83-.79Zm-68.41,146.61h21.43v-31.71c-7.02-.5-14.68-1.49-21.43-3.55v35.26Zm0-126.62c8.85-5.75,15.5-11.38,21.19-14.1l.24-6.69h-21.43v20.79Z"
        style="fill: #696969;" />
      <path
        d="M349.99,91.36c-3.76,1.16-7.46,2.8-11.08,4.92-3.62,2.13-7.04,4.64-10.28,7.53-3.23,2.9-6.1,6.09-8.61,9.56V36.92h-21.43V200.75c7.72-2.22,16.01-5.07,24.74-8.71-.25-.84-.49-1.7-.71-2.58-1.73-6.8-2.6-14.12-2.6-21.93v-4.64c0-6.95,.89-13.66,2.68-20.12,1.78-6.47,4.39-12.24,7.81-17.31,3.43-5.07,7.58-9.12,12.46-12.16,1.86-1.16,3.8-2.1,5.84-2.82,.28-6.71,1.48-13.48,3.53-19.77-.78,.19-1.56,.41-2.35,.65Z"
        style="fill: #696969;" />
      <path
        d="M420.32,176.57c-.53,7.09-1.7,13.88-3.51,20.35-2.55,9.17-6.37,17.16-11.43,23.96-5.07,6.81-11.37,12.17-18.9,16.08-7.53,3.91-16.27,5.86-26.21,5.86-7.63,0-15.04-2.1-22.23-6.3s-13.2-10.45-18.02-18.75v22.16h-21.43v-39.18c7.72-2.22,16.01-5.07,24.74-8.71,1.7,5.75,4.02,10.85,6.97,15.3,3.38,5.12,7.5,9.15,12.38,12.1,4.87,2.94,10.45,4.41,16.72,4.41s12.02-1.47,16.94-4.41c4.93-2.95,9.1-6.95,12.53-12.02,3.42-5.07,6.01-11.01,7.75-17.81,1.4-5.49,2.23-11.31,2.5-17.46,6.85,2.14,14.01,3.63,21.2,4.42Z"
        style="fill: #696969;" />
      <path
        d="M503.28,89.62c-2.79,0-5.51,.15-8.13,.44,1.87,5.86,2.97,12.32,3.28,18.95,1.57-.18,3.19-.27,4.85-.27,3.44,0,6.72,.4,9.83,1.19,1.23-6.48,4.98-12.34,10.32-17.37-6.15-1.96-12.87-2.94-20.15-2.94Z"
        style="fill: #696969;" />
      <path
        d="M547.82,225.16c-4.71,4.67-10.15,8.53-16.31,11.58-8.21,4.05-17.62,6.08-28.23,6.08s-19.87-2.03-28.02-6.08c-8.16-4.06-15.01-9.56-20.56-16.51-5.56-6.95-9.76-15.03-12.6-24.25-1.88-6.08-3.14-12.39-3.77-18.95,7.41-.46,14.57-1.75,21.18-3.93,.4,5.38,1.33,10.54,2.79,15.49,2.02,6.91,4.92,12.99,8.69,18.25,3.76,5.26,8.37,9.44,13.82,12.52,5.46,3.09,11.61,4.64,18.47,4.64s13.05-1.55,18.6-4.64c1.25-.69,2.46-1.44,3.62-2.25,7.44,3.2,14.94,5.87,22.32,8.05Z"
        style="fill: #696969;" />
      <path
        d="M663.04,93.32c-1.21-.24-2.46-.44-3.76-.58-1.31-.15-2.56-.27-3.77-.36-1.21-.1-2.15-.15-2.82-.15-8.21,0-15.38,2.13-21.51,6.37-.43,.3-.86,.61-1.29,.94,5.69,4.03,12.1,8.69,19.38,14.07,.93-.06,1.88-.09,2.84-.09,1.35,0,3.42,.21,6.22,.65,2.8,.43,5.31,1.04,7.53,1.81v-21.87c-.67-.29-1.61-.55-2.82-.79Zm-68.42,146.61h21.43v-10.45c-5.8,1.86-13.1,2.84-21.43,2.9v7.55Z"
        style="fill: #696969;" />
    </g>
  </g>
  <g id="b" data-name="Layer 2">
    <path
      d="M132.45,103.13c-4.56,8.34-9.96,15.55-14.64,21.07l-24.11-66.29-17.51,47.94-16.94,46.39c-6.26-1.74-12.5-4.91-18.48-9.35l19.68-53.72,18.77-51.24h29.54l23.69,65.2Z"
      style="fill: none; stroke: #22b573; stroke-miterlimit: 10; stroke-width: 6px;" />
    <path
      d="M248.98,116.65s-.07,.03-.11,.05c-4.44,2.13-8.21,5-11.3,8.62-3.09,3.62-5.45,7.77-7.09,12.45s-2.46,9.58-2.46,14.7v55.75c-7.02-.5-14.68-1.49-21.43-3.55V113.31c8.85-5.75,15.5-11.38,21.19-14.1l-.63,17.78c3.99-7.05,8.6-12.64,13.83-16.78,3.83,3.28,6.6,9.23,8,16.44Z"
      style="fill: none; stroke: #22b573; stroke-miterlimit: 10; stroke-width: 6px;" />
    <path
      d="M76.19,105.85c11.65,9.63,25.46,16.38,39.89,20.37,.9,.26,1.82,.5,2.73,.72,7.79,1.97,15.73,3.14,23.58,3.52,10.86,.56,21.55-.38,31.45-2.74,13.71-3.27,24.25-8.9,32.75-14.41"
      style="fill: none; stroke: #22b573; stroke-miterlimit: 10; stroke-width: 6px;" />
    <path d="M227.78,99.21c4.01-1.92,7.55-2.41,11.06-.49,.75,.41,1.46,.91,2.14,1.49"
      style="fill: none; stroke: #22b573; stroke-miterlimit: 10; stroke-width: 6px;" />
    <path d="M248.98,116.65c3.32,17.07-1.03,41.24-17.14,54.07-1.2,.96-2.48,1.86-3.82,2.7"
      style="fill: none; stroke: #22b573; stroke-miterlimit: 10; stroke-width: 6px;" />
    <path
      d="M206.59,180.67c-6.52,.63-12.98-.15-18.47-2.68-1.89-.88-3.66-1.96-5.28-3.27-6.66-5.37-13.21-16.51-9-24,4.06-7.23,17.35-9.68,22-5,5.7,5.74-4.72,19.11-7.72,32.27-1.08,4.72-1.2,9.42,.72,13.73,2.89,6.49,9.68,10.48,17.75,12.95"
      style="fill: none; stroke: #22b573; stroke-miterlimit: 10; stroke-width: 6px;" />
    <path
      d="M420.65,167.53c0,3.07-.11,6.08-.33,9.04-7.19-.79-14.35-2.28-21.2-4.42,.07-1.47,.1-2.97,.1-4.48,0-7.04-.7-13.78-2.11-20.23-.15-.72-.32-1.43-.49-2.14-1.74-7.1-4.33-13.34-7.75-18.75-3.43-5.41-7.6-9.73-12.53-12.96-4.92-3.23-10.57-4.85-16.94-4.85-3.76,0-7.29,.58-10.59,1.74,.28-6.71,1.48-13.48,3.53-19.77,2.93-.73,5.76-1.09,8.51-1.09,9.94,0,18.65,2.1,26.14,6.3,7.48,4.2,13.7,9.87,18.68,17.02,3.89,5.59,7.03,11.89,9.41,18.87,.67,1.93,1.27,3.92,1.81,5.96,2.51,9.41,3.76,19.33,3.76,29.76Z"
      style="fill: none; stroke: #22b573; stroke-miterlimit: 10; stroke-width: 6px;" />
    <path
      d="M498.43,109.01c-4.94,.58-9.48,2.06-13.62,4.43-5.45,3.14-10.06,7.37-13.82,12.67-3.77,5.31-6.67,11.47-8.69,18.47-2.03,7-3.04,14.36-3.04,22.08,0,.31,0,.62,.01,.92,.01,1.87,.09,3.71,.24,5.52-6.61,2.18-13.77,3.47-21.18,3.93-.34-3.39-.5-6.85-.5-10.37,0-9.31,1.13-18.17,3.41-26.59h0c.27-1.02,.56-2.02,.86-3.02,2.84-9.32,7.04-17.48,12.6-24.48,5.55-6.99,12.4-12.57,20.56-16.72,5.99-3.05,12.61-4.98,19.89-5.79,1.87,5.86,2.97,12.32,3.28,18.95Z"
      style="fill: none; stroke: #22b573; stroke-miterlimit: 10; stroke-width: 6px;" />
    <path d="M420.32,176.57c6.05,.66,12.1,.82,18.01,.46"
      style="fill: none; stroke: #22b573; stroke-miterlimit: 10; stroke-width: 6px;" />
    <path
      d="M459.51,173.1c1.12-.36,2.23-.76,3.31-1.18,8.26-3.19,15.49-7.88,21.02-14.2,10.7-12.24,15.41-31.1,14.59-48.71"
      style="fill: none; stroke: #22b573; stroke-miterlimit: 10; stroke-width: 6px;" />
    <path
      d="M495.15,90.06c-2.32-2.79-8.02-8.85-17.31-11.34-13.17-3.53-25.89,2.16-33,9-12.37,11.89-14.52,33.69-3.6,52.34"
      style="fill: none; stroke: #22b573; stroke-miterlimit: 10; stroke-width: 6px;" />
    <path
      d="M569.59,166.66c0,10.33-1.47,20.1-4.41,29.32-2.95,9.22-7.24,17.3-12.89,24.25-1.41,1.73-2.9,3.38-4.47,4.93-7.38-2.18-14.88-4.85-22.32-8.05,4.02-2.76,7.54-6.19,10.57-10.27,3.91-5.26,6.9-11.34,8.98-18.25,2.07-6.9,3.11-14.21,3.11-21.93,0-3.36-.2-6.65-.59-9.87-.51-4.18-1.35-8.25-2.52-12.21-2.08-7-5.07-13.16-8.98-18.47-3.91-5.3-8.64-9.53-14.19-12.67-2.77-1.55-5.68-2.73-8.77-3.51,1.23-6.48,4.98-12.34,10.32-17.37,2.81,.89,5.5,1.99,8.08,3.29,8.21,4.15,15.13,9.73,20.78,16.72,5.65,7,9.94,15.16,12.89,24.48,2.11,6.67,3.46,13.64,4.05,20.89,.24,2.86,.36,5.76,.36,8.72Z"
      style="fill: none; stroke: #22b573; stroke-miterlimit: 10; stroke-width: 6px;" />
    <path d="M649.27,113.61c4.26,1.91,12.29,6.25,18.57,15.11,3.12,4.4,4.92,8.67,6,12"
      style="fill: none; stroke: #22b573; stroke-miterlimit: 10; stroke-width: 6px;" />
    <path d="M523.43,92.56c13.02-12.25,35.56-19.54,54.41-18.84,11.71,.44,21.2,3.92,52.05,25.82"
      style="fill: none; stroke: #22b573; stroke-miterlimit: 10; stroke-width: 6px;" />
    <path d="M547.57,156.79c-19.19-6.87-36.82-27.02-34.73-45.07,.07-.6,.16-1.2,.27-1.79"
      style="fill: none; stroke: #22b573; stroke-miterlimit: 10; stroke-width: 6px;" />
    <path
      d="M459.27,167.58c1.17,1.48,2.35,2.93,3.55,4.34,2.63,3.11,5.32,6.06,8.02,8.8,15.7,15.93,34.99,27.97,54.66,36.39"
      style="fill: none; stroke: #22b573; stroke-miterlimit: 10; stroke-width: 6px;" />
    <path
      d="M649.27,113.61c-4.56,.3-8.68,1.33-12.37,3.09-4.44,2.13-8.2,5-11.29,8.62-3.09,3.62-5.45,7.77-7.1,12.45-1.64,4.68-2.46,9.58-2.46,14.7v77.01c-5.8,1.86-13.1,2.84-21.43,2.9V92.52h21.43l-.87,24.47c4.22-7.44,9.12-13.26,14.71-17.45,5.69,4.03,12.1,8.69,19.38,14.07Z"
      style="fill: none; stroke: #22b573; stroke-miterlimit: 10; stroke-width: 6px;" />
    <path d="M547.82,225.16c16.92,4.98,33.22,7.33,46.8,7.22"
      style="fill: none; stroke: #22b573; stroke-miterlimit: 10; stroke-width: 6px;" />
    <path d="M616.05,178.58c11.78,14.56,18.24,32.62,12.79,42.14-2.21,3.86-6.66,6.8-12.79,8.76"
      style="fill: none; stroke: #22b573; stroke-miterlimit: 10; stroke-width: 6px;" />
    <path d="M569.23,157.94c4.03-.98,7.89-2.04,13.61-1.22,3.98,.57,7.94,1.91,11.78,3.85"
      style="fill: none; stroke: #22b573; stroke-miterlimit: 10; stroke-width: 6px;" />
    <path
      d="M399.12,172.15c-8.04-2.51-15.65-5.91-22.39-10.13-10.86-6.78-19.45-15.67-23.89-26.3-3.12-7.47-4.39-16.31-4.03-25.24"
      style="fill: none; stroke: #22b573; stroke-miterlimit: 10; stroke-width: 6px;" />
    <path d="M352.34,90.71c1.78-2.74,11.52-17.17,29.5-19.99,16.34-2.57,37.93,4.7,44,23,4.23,12.75-.17,27.56-10.76,38.09"
      style="fill: none; stroke: #22b573; stroke-miterlimit: 10; stroke-width: 6px;" />
    <path d="M228.02,208.22c6.07,.42,11.67,.47,15.82,.5,8.28,.07,28.19-.3,54.75-7.97"
      style="fill: none; stroke: #22b573; stroke-miterlimit: 10; stroke-width: 6px;" />
    <path
      d="M323.33,192.04c14.47-6.02,30.17-14.2,46.51-25.32,2.3-1.56,4.6-3.13,6.89-4.7,7.04-4.82,13.97-9.66,20.38-14.58"
      style="fill: none; stroke: #22b573; stroke-miterlimit: 10; stroke-width: 6px;" />
    <path
      d="M60.45,89.17C41.22,62.98,31.73,23.77,46.84,9.72c18.28-16.99,76.52-.85,92,38,7.91,19.86,2.26,39.64-6.39,55.41"
      style="fill: none; stroke: #22b573; stroke-miterlimit: 10; stroke-width: 6px;" />
    <path
      d="M117.81,124.2c-.59,.7-1.17,1.38-1.73,2.02-4.79,5.44-8.51,8.84-9.24,9.5-8.26,7.38-19.06,17.03-34,18-4.5,.29-9.05-.22-13.59-1.48"
      style="fill: none; stroke: #22b573; stroke-miterlimit: 10; stroke-width: 6px;" />
    <path d="M40.77,142.89c-15.47-11.46-29.31-31.42-37.93-57.17"
      style="fill: none; stroke: #22b573; stroke-miterlimit: 10; stroke-width: 6px;" />
  </g>
</svg>