<?xml version="1.0" encoding="UTF-8"?>
<svg height="50px" id="a" data-name="Layer 1" xmlns="http://www.w3.org/2000/svg" viewBox="0 0 1253.5 152.57">
  <g id="b" data-name="a">
    <path id="c" data-name="b"
      d="M1249.9,124.17c-1.87,5.6-5.53,9.93-11,13-5.47,2.93-11.8,4.4-19,4.4-6.27,0-11.93-1.33-17-4-5.07-2.8-9.13-7.33-12.2-13.6-2.39-5.22-3.81-11.98-4.24-20.3,1.89,.27,3.77,.5,5.64,.7,5.07,.4,10.4,.6,16,.6,14.13,0,25.2-2.53,33.2-7.6,8.13-5.2,12.2-12.8,12.2-22.8,0-6.27-1.6-11.53-4.8-15.8-3.07-4.27-7.33-7.47-12.8-9.6-5.47-2.27-11.8-3.4-19-3.4-15.33,0-27.13,4.87-35.4,14.6-8.13,9.6-12.2,22.73-12.2,39.4s4.2,30.33,12.6,39.4c8.4,8.93,19.8,13.4,34.2,13.4,8.4,0,15.8-1.53,22.2-4.6,6.4-3.2,10.87-7.8,13.4-13.8,1.33-3.33,1.67-5.67,1-7-.53-1.47-1.47-2.47-2.8-3h0Zm-55.4-59.8c5.6-7.6,12.87-11.4,21.8-11.4,3.33,0,6.53,.6,9.6,1.8,3.07,1.07,5.6,3,7.6,5.8s3,6.8,3,12c0,4.93-.93,9.07-2.8,12.4-1.73,3.2-4.2,5.73-7.4,7.6-3.2,1.87-6.93,3.2-11.2,4-4.13,.8-8.53,1.2-13.2,1.2-4.27-.13-8.67-.4-13.2-.8-.82-.07-1.61-.15-2.39-.24,.12-14.28,2.85-25.07,8.19-32.36Zm-43.4,59.4c-.53-1.6-1.47-2.67-2.8-3.2-1.07,4.67-3.07,8.6-6,11.8-2.8,3.07-6.2,5.4-10.2,7-4,1.47-8.4,2.2-13.2,2.2-6.13,0-11.73-1.4-16.8-4.2-5.07-2.8-9.13-7.47-12.2-14s-4.6-15.2-4.6-26c0-14.67,2.73-25.73,8.2-33.2,5.47-7.6,12.53-11.4,21.2-11.4,3.47,0,6.67,.6,9.6,1.8,2.93,1.2,5.27,3.07,7,5.6,1.87,2.53,2.8,5.8,2.8,9.8,0,3.07-.53,5.73-1.6,8s-2.73,3.87-5,4.8c1.07,1.47,2.47,2.47,4.2,3s3.47,.8,5.2,.8c4,0,7.2-1.4,9.6-4.2s3.6-6.53,3.6-11.2c0-7.47-2.93-13.53-8.8-18.2-5.73-4.8-14.13-7.2-25.2-7.2-15.2,0-27,4.87-35.4,14.6-8.27,9.6-12.4,22.73-12.4,39.4s4.07,30.33,12.2,39.4c8.27,8.93,19.67,13.4,34.2,13.4,8.8,0,16.4-1.8,22.8-5.4,6.4-3.73,10.67-9.13,12.8-16.2,1.07-3.33,1.33-5.73,.8-7.2h0Zm-106.4,14.6c-.27-4-.47-7.73-.6-11.2v-39.8c0-13.6-2.6-23.93-7.8-31-5.2-7.07-13.33-10.6-24.4-10.6-6.8,0-12.93,1.53-18.4,4.6-5.33,3.07-9.67,7.47-13,13.2-1.16,2.07-2.16,4.3-3,6.68v-3.68c0-6.93-1.33-12.07-4-15.4-2.67-3.47-6.53-5.2-11.6-5.2-3.73,0-6.67,.87-8.8,2.6s-3.2,3.93-3.2,6.6c0,2.27,.8,4.4,2.4,6.4,.67-1.33,1.53-2.2,2.6-2.6,1.07-.4,1.93-.6,2.6-.6,2,0,3.4,.8,4.2,2.4,.8,1.47,1.27,4.13,1.4,8v73.8c0,2.93,.87,5.27,2.6,7s4,2.6,6.8,2.6c2.27,0,4.13-.4,5.6-1.2,1.6-.93,2.8-1.73,3.6-2.4-.67-1.87-1.2-3.87-1.6-6-.4-2.13-.67-4.87-.8-8.2s-.27-7.6-.4-12.8v-19.8c0-8.53,.87-15.8,2.6-21.8s4-10.8,6.8-14.4c2.8-3.73,5.8-6.4,9-8,3.33-1.6,6.67-2.4,10-2.4,7.73,0,13.07,2.93,16,8.8,3.07,5.73,4.67,14.2,4.8,25.4v54c0,2.67,.87,4.8,2.6,6.4,1.87,1.6,4.13,2.4,6.8,2.4,2.13,0,3.93-.33,5.4-1,1.47-.8,2.73-1.67,3.8-2.6-.93-2.93-1.6-6.33-2-10.2h0Zm-101.6,.4c-.27-1.2-.8-2.33-1.6-3.4-.67,1.47-1.67,2.53-3,3.2s-2.53,1-3.6,1c-4.8,0-7.2-3.53-7.2-10.6v-40c0-14.67-3.27-25.53-9.8-32.6-6.4-7.07-16.53-10.6-30.4-10.6-11.6,0-20.87,2.07-27.8,6.2-6.93,4-10.4,9.93-10.4,17.8,0,4.53,1.33,8.6,4,12.2s6.33,5.4,11,5.4c1.73,0,3.47-.27,5.2-.8,1.73-.67,3.2-1.73,4.4-3.2-3.07-1.07-5.27-3-6.6-5.8-1.33-2.93-2-5.73-2-8.4,0-4.27,1-7.53,3-9.8,2.13-2.27,4.8-3.87,8-4.8,3.33-1.07,6.6-1.6,9.8-1.6,9.2,0,15.73,2.93,19.6,8.8s5.8,14.6,5.8,26.2v5.2c-4.93-.27-10.4-.13-16.4,.4-5.87,.53-11.6,1.53-17.2,3-6.4,1.73-12.13,4.07-17.2,7-4.93,2.93-8.87,6.53-11.8,10.8-2.8,4.27-4.2,9.13-4.2,14.6,0,7.07,2.2,12.73,6.6,17,4.4,4.13,10.53,6.2,18.4,6.2,7.2,0,13.87-1.73,20-5.2s11.47-8.27,16-14.4c2.57-3.45,4.77-7.15,6.6-11.12v5.72c0,8.67,1.47,15,4.4,19,2.93,3.87,7.27,5.8,13,5.8,4,0,7.33-1,10-3s4-4.47,4-7.4c0-.8-.2-1.73-.6-2.8Zm-34.6-23.8c-2.13,4.93-4.93,9.33-8.4,13.2-3.47,3.87-7.27,7-11.4,9.4-4,2.27-7.93,3.4-11.8,3.4-5.33,.27-9.13-1.2-11.4-4.4-2.27-3.33-3.4-7-3.4-11,0-5.2,1.67-9.6,5-13.2,3.33-3.73,7.93-6.67,13.8-8.8,2.8-1.07,6-1.93,9.6-2.6s7.27-1.13,11-1.4c3.87-.27,7.33-.27,10.4,0,0,5.33-1.13,10.47-3.4,15.4h0Zm-87.6,23.4c-.27-4-.47-7.73-.6-11.2v-39.8c0-13.6-2.6-23.93-7.8-31s-13.33-10.6-24.4-10.6c-6.8,0-12.93,1.53-18.4,4.6-5.33,3.07-9.67,7.47-13,13.2-1.16,2.07-2.16,4.3-3,6.68v-3.68c0-6.93-1.33-12.07-4-15.4-2.67-3.47-6.53-5.2-11.6-5.2-3.73,0-6.67,.87-8.8,2.6s-3.2,3.93-3.2,6.6c0,2.27,.8,4.4,2.4,6.4,.67-1.33,1.53-2.2,2.6-2.6,1.07-.4,1.93-.6,2.6-.6,2,0,3.4,.8,4.2,2.4,.8,1.47,1.27,4.13,1.4,8v73.8c0,2.93,.87,5.27,2.6,7s4,2.6,6.8,2.6c2.27,0,4.13-.4,5.6-1.2,1.6-.93,2.8-1.73,3.6-2.4-.67-1.87-1.2-3.87-1.6-6-.4-2.13-.67-4.87-.8-8.2s-.27-7.6-.4-12.8v-19.8c0-8.53,.87-15.8,2.6-21.8s4-10.8,6.8-14.4c2.8-3.73,5.8-6.4,9-8,3.33-1.6,6.67-2.4,10-2.4,7.73,0,13.07,2.93,16,8.8,3.07,5.73,4.67,14.2,4.8,25.4v54c0,2.67,.87,4.8,2.6,6.4,1.87,1.6,4.13,2.4,6.8,2.4,2.13,0,3.93-.33,5.4-1,1.47-.8,2.73-1.67,3.8-2.6-.93-2.93-1.6-6.33-2-10.2h0Zm-117.4,.2c-.27-3.73-.4-7.53-.4-11.4l-.2-72.6c0-2.8-.87-4.93-2.6-6.4-1.6-1.6-3.73-2.4-6.4-2.4-2.27,0-4.2,.47-5.8,1.4-1.47,.8-2.6,1.53-3.4,2.2,1.07,2.93,1.73,6.27,2,10,.4,3.73,.6,7.53,.6,11.4l.2,72.6c0,2.67,.87,4.8,2.6,6.4,1.73,1.6,3.87,2.4,6.4,2.4,2.27,0,4.13-.4,5.6-1.2,1.6-.93,2.8-1.73,3.6-2.4-1.07-2.93-1.8-6.27-2.2-10h0Zm-1.6-127.6c-2-2.13-4.53-3.2-7.6-3.2s-5.47,1.07-7.6,3.2c-2.13,2-3.2,4.53-3.2,7.6s1.07,5.47,3.2,7.6,4.67,3.2,7.6,3.2,5.6-1.07,7.6-3.2c2.13-2.13,3.2-4.67,3.2-7.6s-1.07-5.6-3.2-7.6Zm-51,62.2h-52v9.8h52c.27-1.47,.4-3,.4-4.6,.13-1.73,0-3.47-.4-5.2Zm9-59.8c-.4-1.33-1.2-2-2.4-2h-60.4c-3.47,0-6.2,.27-8.2,.8-1.87,.53-3.73,1.67-5.6,3.4,1.07,2.93,1.73,6.13,2,9.6,.4,3.33,.6,7,.6,11l.2,107.2c0,2.67,.87,4.8,2.6,6.4,1.73,1.6,3.93,2.4,6.6,2.4,2.27,0,4.2-.4,5.8-1.2,1.6-.93,2.8-1.73,3.6-2.4-1.07-2.93-1.8-6.27-2.2-10-.27-3.73-.4-7.53-.4-11.4l-.08-44.2-.02-9.8-.1-52.8c9.47,.13,18.67,.67,27.6,1.6s17.73,2.13,26.4,3.6c1.07-.53,2-1.53,2.8-3s1.33-3.07,1.6-4.8c.27-1.73,.13-3.2-.4-4.4h0Zm-153.6,37.8c-4.27-3.6-9.8-5.4-16.6-5.4-7.87,0-14.33,3-19.4,9-3.1,3.59-5.51,8.26-7.2,14v-1c.13-7.33-1.13-12.8-3.8-16.4-2.67-3.6-6.53-5.4-11.6-5.4-3.73,0-6.67,.87-8.8,2.6-2.13,1.73-3.2,3.93-3.2,6.6,0,2.27,.8,4.4,2.4,6.4,.67-1.33,1.53-2.2,2.6-2.6,1.07-.4,1.93-.6,2.6-.6,2,0,3.4,.8,4.2,2.4,.93,1.47,1.4,4.13,1.4,8v73.6c0,2.93,.93,5.27,2.8,7,1.87,1.6,4,2.4,6.4,2.4s4.33-.4,5.8-1.2c1.6-.8,2.8-1.6,3.6-2.4-.67-1.87-1.2-3.87-1.6-6-.27-2.13-.53-4.8-.8-8-.13-3.33-.2-7.6-.2-12.8v-19.6c0-11.6,1-20.8,3-27.6,2-6.93,4.6-11.93,7.8-15,3.33-3.07,6.8-4.6,10.4-4.6s6.6,1,8.6,3,3,5.13,3,9.4c0,2.13-.27,4.2-.8,6.2-.4,1.87-1.4,4.07-3,6.6,1.47,1.47,3.8,2.13,7,2,3.07-.13,5.8-1.6,8.2-4.4,2.4-2.8,3.6-6.4,3.6-10.8,0-6.67-2.13-11.8-6.4-15.4Zm-96.8,8.8c-8-9.47-19.27-14.2-33.8-14.2s-25.67,4.73-33.8,14.2c-8,9.33-12,22.4-12,39.2s4,29.93,12,39.4c8.13,9.33,19.4,14,33.8,14s25.8-4.67,33.8-14c8.13-9.47,12.2-22.6,12.2-39.4s-4.07-29.87-12.2-39.2Zm-12.4,73.4c-4.93,8-12.07,12-21.4,12s-16.33-4-21.4-12c-4.93-8-7.4-19.4-7.4-34.2s2.47-26.13,7.4-34c5.07-8,12.2-12,21.4-12s16.47,4,21.4,12c4.93,7.87,7.4,19.2,7.4,34s-2.47,26.2-7.4,34.2Zm-89-66.6c-2.8-7.2-6.8-12.47-12-15.8-5.07-3.47-11.2-5.2-18.4-5.2-5.6,0-10.67,1.13-15.2,3.4-4.53,2.13-8.4,5.13-11.6,9-3.2,3.73-5.6,8-7.2,12.8V36.77c0-2.27,.07-5.13,.2-8.6s.4-7.07,.8-10.8c.4-3.73,.93-7,1.6-9.8-.8-.67-2.07-1.4-3.8-2.2-1.6-.93-3.6-1.4-6-1.4-2.53,0-4.67,.8-6.4,2.4-1.6,1.47-2.4,3.6-2.4,6.4v126.4c3.2,3.33,7,6,11.4,8,4.53,1.87,9.27,3.27,14.2,4.2,4.93,.8,9.6,1.2,14,1.2,8,0,14.87-1.47,20.6-4.4s10.4-7,14-12.2c3.6-5.33,6.2-11.47,7.8-18.4,1.73-7.07,2.6-14.67,2.6-22.8,0-11.6-1.4-20.93-4.2-28h0Zm-13.8,45.4c-.67,5.73-2.07,11.07-4.2,16-2,4.8-4.87,8.73-8.6,11.8-3.73,2.93-8.67,4.47-14.8,4.6-3.07,0-6.13-.33-9.2-1s-5.87-1.6-8.4-2.8c-2.4-1.2-4.2-2.53-5.4-4v-33.4c0-5.2,.53-10.6,1.6-16.2s2.8-10.8,5.2-15.6c2.53-4.8,5.73-8.67,9.6-11.6,4-3.07,8.87-4.6,14.6-4.6,6.8,0,11.93,3.13,15.4,9.4,3.6,6.27,5.4,16.27,5.4,30,0,5.73-.4,11.53-1.2,17.4h0Zm-93.8-61c-4.27-3.6-9.8-5.4-16.6-5.4-7.87,0-14.33,3-19.4,9-3.1,3.59-5.51,8.26-7.2,14v-1c.13-7.33-1.13-12.8-3.8-16.4-2.67-3.6-6.53-5.4-11.6-5.4-3.73,0-6.67,.87-8.8,2.6s-3.2,3.93-3.2,6.6c0,2.27,.8,4.4,2.4,6.4,.67-1.33,1.53-2.2,2.6-2.6,1.07-.4,1.93-.6,2.6-.6,2,0,3.4,.8,4.2,2.4,.93,1.47,1.4,4.13,1.4,8v73.6c0,2.93,.93,5.27,2.8,7,1.87,1.6,4,2.4,6.4,2.4s4.33-.4,5.8-1.2c1.6-.8,2.8-1.6,3.6-2.4-.67-1.87-1.2-3.87-1.6-6-.27-2.13-.53-4.8-.8-8-.13-3.33-.2-7.6-.2-12.8v-19.6c0-11.6,1-20.8,3-27.6,2-6.93,4.6-11.93,7.8-15,3.33-3.07,6.8-4.6,10.4-4.6s6.6,1,8.6,3,3,5.13,3,9.4c0,2.13-.27,4.2-.8,6.2-.4,1.87-1.4,4.07-3,6.6,1.47,1.47,3.8,2.13,7,2,3.07-.13,5.8-1.6,8.2-4.4s3.6-6.4,3.6-10.8c0-6.67-2.13-11.8-6.4-15.4ZM38.5,96.37v9.6h63.4v-9.6H38.5Zm53.03,0l2.96,9.6h7.41v-9.6h-10.37ZM67.85,19.54l1.25-4.17-2.6-.2,1.35,4.37Zm-29.35,86.43h3.42l2.88-9.6h-6.3v9.6Z"
      style="fill: #696969;" />
    <path
      d="M126.1,148.37c-.8,.93-1.93,1.8-3.4,2.6s-3.47,1.2-6,1.2c-2.4,0-4.6-.53-6.6-1.6-1.87-1.07-3-2.73-3.4-5l-12.21-39.6h7.41v-9.6h-10.37L67.85,19.54l1.25-4.17-2.6-.2,1.35,4.37-23.05,76.83h-6.3v9.6h3.42l-10.02,33.4c-.27,1.07-.53,2.2-.8,3.4-.27,1.07-.4,2.13-.4,3.2,0,.93,.07,1.8,.2,2.6,.27,.8,.6,1.47,1,2-1.2,.4-2.47,.8-3.8,1.2-1.33,.27-3,.4-5,.4-2.93,0-5.2-.6-6.8-1.8-1.6-1.2-2.33-3.07-2.2-5.6,0-1.07,.2-2.4,.6-4,.4-1.73,.8-3.4,1.2-5L58.3,11.37c4.4-1.73,8.8-2.6,13.2-2.6,2.27,0,4.27,.47,6,1.4,1.87,.8,3.07,2.33,3.6,4.6l40.2,124.2c.53,1.6,1.2,3.27,2,5,.8,1.6,1.73,3.07,2.8,4.4Z"
      style="fill: #696969;" />
  </g>
  <g id="d" data-name="c">
    <path
      d="M25.65,107.16c-3-.41-6.04-.27-8.91,.55-1.57,.46-8.31,2.45-11.84,8.89-1.69,3.07-3.56,8.85-1.48,12.58,1.72,3.06,6.44,5.32,12.57,6.31h.01c5.07,.82,11.09,.77,17.19-.41,4.67-.89,9.39-2.46,13.73-4.8,4.39-2.37,8.41-5.53,11.64-9.61,7.76-9.8,11.7-25.8,5.55-37.38-3.01-5.64-7.51-8.54-12.16-10.76"
      style="fill: none; stroke: #0F5156; stroke-miterlimit: 10; stroke-width: 5px;" />
    <path
      d="M159.12,125.87c2,.72,4.12,1.44,6.38,2.2,19.64,6.62,44.28,10.11,62.2,8.84,6.35-.45,11.86-1.5,16-3.21,3.91-1.63,6.61-3.85,7.64-6.74,1.75-4.9-2.08-9.47-7.64-14.86"
      style="fill: none; stroke: #0F5156; stroke-miterlimit: 10; stroke-width: 5px;" />
    <path
      d="M355.91,62.87c4.89,4.63,8.31,8.18,9.77,9.69,18.47,19.14,27.21,35.07,36.95,46.33,3.84,4.44,7.84,8.16,12.65,11.06,3.63,2.19,7.73,3.92,12.57,5.15,6.61,1.67,13.92,2.23,21.05,1.71"
      style="fill: none; stroke: #0F5156; stroke-miterlimit: 10; stroke-width: 5px;" />
    <path
      d="M601.94,43.81c5.88,1.36,9.18,3.23,9.45,5.81,.33,3.13-3.96,5.93-9.42,8.8-5.3,2.8-11.69,5.68-16.01,9.02-3.11,2.4-5.15,5.05-4.92,8.08,.2,2.69,2.13,4.82,4.95,6.67"
      style="fill: none; stroke: #0F5156; stroke-miterlimit: 10; stroke-width: 5px;" />
    <path
      d="M603,142.11c10.75,.92,25.9,1.42,47.24,1.13,13.43-.18,25.89-.35,37.26-.62,5.79-.14,11.3-.31,16.5-.52,14.01-.58,25.87-1.46,35.3-2.98,6.66-1.07,12.1-2.45,16.22-4.25,5.03-2.19,8.11-5.01,9.06-8.65,1.55-5.94-2.88-12.82-9.48-19.31"
      style="fill: none; stroke: #0F5156; stroke-miterlimit: 10; stroke-width: 5px;" />
    <path
      d="M783.56,55.17c2.26,2.53,4.67,5.15,7.23,7.83,4.58,4.8,8.69,9.1,12.43,12.91,6.61,6.73,12.09,11.95,17.08,15.7,5.7,4.31,10.76,6.72,16.13,7.35,11.72,1.38,19.99-3.68,29.5-11.67"
      style="fill: none; stroke: #0F5156; stroke-miterlimit: 10; stroke-width: 5px;" />
    <path
      d="M1093.6,129.7h.01c4.11-1.07,8.26-2.18,12.43-3.3,21.64-5.81,44.35-11.89,63.39-21.54,6.06-3.07,11.75-6.5,16.92-10.41,10.9-8.21,19.47-18.51,24.27-31.87,1.14-3.17,2-6.33,2.63-9.45"
      style="fill: none; stroke: #0F5156; stroke-miterlimit: 10; stroke-width: 5px;" />
    <path d="M1211.01,13.75c2.33,8.24,4.5,19.6,3.32,32.07"
      style="fill: none; stroke: #0F5156; stroke-miterlimit: 10; stroke-width: 5px;" />
    <path
      d="M1076.45,133.78c-11.6,2.44-22.47,3.87-31.85,3.07-6.23-.53-11.8-2.04-16.5-4.88-2.31-1.39-4.4-3.1-6.26-5.18-11.67-13.04-8.46-34.22-6.07-44.7,.03-6.48-.55-16.98-4.5-26.63"
      style="fill: none; stroke: #0F5156; stroke-miterlimit: 10; stroke-width: 5px;" />
    <path
      d="M1006.02,46.18c-1.6-2.1-3.46-4.04-5.63-5.76-22.02-17.48-60.7-.44-76.9,6.7-3.7,1.63-7.17,3.31-10.44,5.04-3.74,1.96-7.22,3.97-10.47,6.01-13.3,8.3-22.81,16.96-30.95,24.16"
      style="fill: none; stroke: #0F5156; stroke-miterlimit: 10; stroke-width: 5px;" />
    <path
      d="M776.83,47.36c-22.62-27.03-29.61-43.97-46.87-44.83-10.58-.52-20.47,5.22-26.95,9.66-1.33,.91-2.52,1.76-3.54,2.5-4.96,3.58-8.53,7.21-12.23,11.99-3,3.88-6.08,8.51-10.06,14.49-8.44,12.69-8.43,16.46-7.93,18.85,2.03,9.89,15.97,14.08,18.06,14.68"
      style="fill: none; stroke: #0F5156; stroke-miterlimit: 10; stroke-width: 5px;" />
    <path d="M702.96,77.35c7.06,1.76,14.66,4.46,22.4,8.53,3.66,1.93,8.69,4.87,13.94,8.43"
      style="fill: none; stroke: #0F5156; stroke-miterlimit: 10; stroke-width: 5px;" />
    <path
      d="M586.09,139.61c-7.18-1.82-8.82-3.96-9.12-5.62-.57-3.19,3.49-6.51,9.09-10.04,4.86-3.06,10.88-6.27,16.02-9.69,6.63-4.4,11.79-9.14,11.16-14.32-.56-4.58-5.43-7.61-11.21-10.26"
      style="fill: none; stroke: #0F5156; stroke-miterlimit: 10; stroke-width: 5px;" />
    <path
      d="M585.91,41.65c-31.11-8.34-56.66-9.17-74.05-8.36-4.9,.23-39.08,2.08-44.05,14.85-2.43,6.25-1.5,12.56-1.5,12.56,.65,2.79,1.77,5.73,3.14,8.78h0c7.21,15.96,21.46,34.78,14.27,49.71-3.19,6.62-10.12,11.46-18.64,14.41"
      style="fill: none; stroke: #0F5156; stroke-miterlimit: 10; stroke-width: 5px;" />
    <path
      d="M347.13,54.88c-23.01-20.11-62.19-47.98-92.83-36.34-3.56,1.35-6.97,3.23-10.18,5.52-6.52,4.65-12.17,11.01-16.42,18.16-5.96,10.02-9.18,21.59-8.18,32.19,.78,8.25,4.02,15.01,8.18,20.75"
      style="fill: none; stroke: #0F5156; stroke-miterlimit: 10; stroke-width: 5px;" />
    <path
      d="M143.1,117.75c-1.76-1.4-3.41-2.99-4.99-4.86-12.14-14.36-4.91-27.17-16.28-52.54-4.21-9.42-10.09-22.94-24.05-31.45-3.84-2.34-8.74-4.65-14.15-6.32-4.93-1.53-10.27-2.54-15.63-2.57h-.29c-4.46,0-8.93,.68-13.14,2.32h0c-2.88,1.1-5.64,2.65-8.21,4.72-9,7.23-16.3,21.38-12.21,32.19,1.19,3.16,3.1,5.36,5.43,7.08"
      style="fill: none; stroke: #0F5156; stroke-miterlimit: 10; stroke-width: 5px;" />
  </g>
</svg>